<svg id="图层_3" data-name="图层 3" xmlns="http://www.w3.org/2000/svg" viewBox="0 0 60 60"><defs><style>.cls-1{fill:#00a0e9;}</style></defs><title>heguan-coocro-logo</title><path class="cls-1" d="M293.15,398.82a31.77,31.77,0,0,1,9.37,0,31.47,31.47,0,0,1,2.13-7.22,30.24,30.24,0,0,0-13.62,0A31.47,31.47,0,0,1,293.15,398.82Z" transform="translate(-267.83 -390.82)"/><path class="cls-1" d="M311.85,404.1a22,22,0,0,0,15.68,21,30,30,0,0,0-13.85-29.78A21.84,21.84,0,0,0,311.85,404.1Z" transform="translate(-267.83 -390.82)"/><path class="cls-1" d="M302.42,408.73a21.72,21.72,0,0,0-9.17,0,31.74,31.74,0,0,1-22.15,25.71,30.13,30.13,0,0,0,13.11,13.11l-3.29-3.29a5.65,5.65,0,0,1,0-8l12.94-12.94a5.65,5.65,0,0,1,8,0l12.94,12.94a5.65,5.65,0,0,1,0,8l-3.29,3.29a30.13,30.13,0,0,0,13.11-13.11A31.74,31.74,0,0,1,302.42,408.73Z" transform="translate(-267.83 -390.82)"/><path class="cls-1" d="M300,446.45a5.55,5.55,0,0,0,1.86-1.22l1-1a5.65,5.65,0,0,0,0-8l-1-1a5.65,5.65,0,0,0-8,0l-1,1a5.65,5.65,0,0,0,0,8l1,1a5.55,5.55,0,0,0,1.86,1.22,10,10,0,0,0-5.57,3.37,30.17,30.17,0,0,0,15.4,0A10,10,0,0,0,300,446.45Z" transform="translate(-267.83 -390.82)"/><path class="cls-1" d="M283.82,404.1a21.84,21.84,0,0,0-1.83-8.76,30,30,0,0,0-13.85,29.78A22,22,0,0,0,283.82,404.1Z" transform="translate(-267.83 -390.82)"/></svg>